<svg width="470" height="173" viewBox="0 0 470 173" fill="none" xmlns="http://www.w3.org/2000/svg">
<path d="M441.51 48.6059C450.725 52.9449 462.176 107.111 469.302 148.692C471.366 160.735 462.021 171.609 449.802 171.632L3.15424 172.492C1.04248 172.496 -0.561829 170.398 0.303192 168.471C0.487457 168.061 0.589752 167.705 0.661957 167.261C1.18195 164.063 3.0358 160.526 8.28879 151.849C9.15778 150.414 10.1985 149.07 11.4686 147.974C22.3376 138.591 31.93 140.54 35.5219 142.842C36.6245 143.611 39.5469 145.609 43.4448 148.183C44.9603 149.184 46.6105 150.121 48.4267 150.114C53.8407 150.094 57.448 144.626 58.6918 141.473C59.8699 139.04 63.4043 130.249 68.1168 114.553C71.3935 100.912 76.4895 102.136 79.4861 105.287C80.3705 106.217 81.1353 107.257 82.0425 108.165C82.7972 108.92 83.7658 109.883 84.8885 110.989C87.2725 113.338 90.6758 115.496 93.3091 113.431C97.2018 110.378 99.7519 102.7 100.712 98.1276C103.461 87.6333 109.823 64.3634 113.278 55.2379C117.448 47.1645 122.949 49.6861 125.975 52.6918C126.72 53.4323 127.279 54.3306 127.789 55.2491C131.84 62.5415 139.296 75.8857 141.946 80.3329C144.774 85.0782 148.099 85.0478 149.408 84.4394C150.408 83.923 152.822 82.3768 155.451 79.9121C156.419 79.0042 157.385 78.0267 158.647 77.6168C160.528 77.0061 162.344 77.371 163.599 77.9014C164.383 78.2327 165.023 78.8133 165.621 79.4191C166.248 80.054 167.041 80.8551 167.888 81.7075C169.595 83.4265 172.315 85.1296 174.106 83.4975C174.615 83.0338 175.237 82.4181 175.62 81.8459C177.921 78.4053 181.524 65.8056 183.181 59.3444C183.729 57.3047 185.289 52.4014 187.63 46.9988C188.545 44.886 189.785 42.3537 192.085 42.2404C198.805 41.9092 203.011 64.0307 204.387 76.6827C205.958 89.7626 209.178 117.2 209.492 122.31C209.852 128.169 211.534 134.029 213.022 139.888C213.29 140.942 213.949 142.812 214.666 143.63C217.163 146.475 219.575 140.913 221.532 137.673C224.26 133.157 227.501 129.805 229.717 127.939C230.604 127.192 231.618 126.631 232.662 126.128C237.695 123.7 246.275 119.199 249.941 115.922C253.068 113.128 256.393 113.186 258.545 113.844C259.666 114.187 260.574 114.975 261.57 115.594C263.219 116.619 265.818 117.747 268.791 117.747C274.446 117.747 278.74 108.318 280.18 103.603C282.405 98.4318 287.249 86.9945 288.819 82.6143C290.578 77.7095 292.652 73.537 296.453 68.4568C297.364 67.2396 298.415 66.0919 299.757 65.3765C305.019 62.5694 308.802 66.4657 311.775 70.2521C312.975 71.7807 314.29 73.4082 316.184 73.8422C319.42 74.5834 321.765 71.8231 323.828 68.0391C324.329 67.1203 324.873 66.232 325.346 65.2984C328.551 58.974 333.383 40.2968 335.552 31.0555C336.599 27.7095 339.872 17.9149 344.584 5.50423C351.182 -6.54137 358.591 5.9605 361.471 13.7171C367.754 30.9034 380.87 66.371 383.07 70.7512C385.819 76.2265 387.389 76.6827 392.102 76.6827C396.454 76.9987 403.474 68.9023 407.659 63.1698C408.833 61.5617 410.11 59.927 411.966 59.2055C412.34 59.0597 412.727 58.9422 413.112 58.8698C414.859 58.541 416.141 60.1371 417.439 61.3519C420.979 64.665 423.682 63.0664 424.697 61.6258C427.4 58.606 432.745 53.0154 436.404 50.2936C437.915 49.1696 439.806 47.8037 441.51 48.6059Z" fill="url(#paint0_linear_219_14867)"/>
<defs>
<linearGradient id="paint0_linear_219_14867" x1="236" y1="0.5" x2="236" y2="172.5" gradientUnits="userSpaceOnUse">
<stop stop-color="#A5DDFF"/>
<stop offset="1" stop-color="#D3EFFF" stop-opacity="0"/>
</linearGradient>
</defs>
</svg>
