<svg width="29" height="29" viewBox="0 0 29 29" fill="none" xmlns="http://www.w3.org/2000/svg">
<path d="M25.2227 9.52767V18.861C25.2227 20.4081 24.6081 21.8918 23.5141 22.9858C22.4201 24.0798 20.9364 24.6943 19.3893 24.6943H10.056C8.50889 24.6943 7.02516 24.0798 5.9312 22.9858C4.83724 21.8918 4.22266 20.4081 4.22266 18.861V9.52767C4.22266 7.98057 4.83724 6.49684 5.9312 5.40288C7.02516 4.30892 8.50889 3.69434 10.056 3.69434H19.3893C20.9364 3.69434 22.4201 4.30892 23.5141 5.40288C24.6081 6.49684 25.2227 7.98057 25.2227 9.52767Z" stroke="white" stroke-width="1.75" stroke-linecap="round" stroke-linejoin="round"/>
<path d="M13.556 24.6945V14.1945C13.556 11.6418 14.1393 9.52783 18.2227 9.52783M11.2227 15.3612H18.2227" stroke="white" stroke-width="1.75" stroke-linecap="round" stroke-linejoin="round"/>
</svg>
