<svg width="28" height="29" viewBox="0 0 28 29" fill="none" xmlns="http://www.w3.org/2000/svg">
<path d="M26.8327 3.70607C26.8327 3.70607 24.4783 5.09673 23.1693 5.49107C22.4667 4.68316 21.5329 4.11054 20.4942 3.85065C19.4555 3.59075 18.3621 3.65613 17.3618 4.03793C16.3615 4.41973 15.5025 5.09954 14.9012 5.9854C14.2998 6.87127 13.985 7.92046 13.9993 8.99107V10.1577C11.9491 10.2109 9.9175 9.75618 8.08553 8.83409C6.25355 7.91199 4.67805 6.55114 3.49935 4.87273C3.49935 4.87273 -1.16732 15.3727 9.33268 20.0394C6.92996 21.6704 4.0677 22.4882 1.16602 22.3727C11.666 28.2061 24.4993 22.3727 24.4993 8.95607C24.4993 8.63173 24.4667 8.3074 24.406 7.98773C25.596 6.81407 26.8327 3.70607 26.8327 3.70607Z" stroke="white" stroke-width="1.75" stroke-linecap="round" stroke-linejoin="round"/>
</svg>
