<svg width="29" height="29" viewBox="0 0 29 29" fill="none" xmlns="http://www.w3.org/2000/svg">
<g clip-path="url(#clip0_590_955)">
<path d="M21.0612 13.1712C20.9399 13.1135 20.8173 13.0582 20.6937 13.0055C20.4779 9.0225 18.3021 6.74284 14.6481 6.7195H14.5991C12.4127 6.7195 10.5962 7.65284 9.47741 9.35034L11.4864 10.7282C12.3217 9.46 13.6331 9.18934 14.6002 9.18934H14.6329C15.8357 9.1975 16.7446 9.5475 17.3314 10.23C17.7596 10.7258 18.0454 11.413 18.1866 12.2787C17.0454 12.0934 15.887 12.0374 14.7332 12.1118C11.2601 12.3125 9.02591 14.3378 9.17641 17.153C9.25224 18.581 9.96391 19.8095 11.1796 20.6122C12.2062 21.2912 13.5304 21.6225 14.9071 21.5478C16.7236 21.4475 18.1481 20.7545 19.1421 19.4875C19.8981 18.525 20.3752 17.2778 20.5864 15.7063C21.4521 16.229 22.0937 16.9162 22.4484 17.7422C23.0516 19.148 23.0866 21.4568 21.2024 23.3387C19.5516 24.9883 17.5671 25.7012 14.5687 25.7233C11.2426 25.7 8.72607 24.6325 7.09041 22.5535C5.55857 20.6052 4.76757 17.7935 4.73841 14.1943C4.76757 10.5952 5.55857 7.78234 7.09041 5.83517C8.72607 3.75617 11.2414 2.68984 14.5687 2.66534C17.9182 2.68867 20.4779 3.762 22.1766 5.85034C23.0096 6.87584 23.6372 8.16384 24.0514 9.66534L26.4057 9.03767C25.9041 7.1885 25.1142 5.596 24.0409 4.27417C21.8627 1.59434 18.6777 0.222336 14.5769 0.194336H14.5606C10.4644 0.222336 7.31791 1.60017 5.20274 4.28934C3.31974 6.681 2.34907 10.0118 2.31641 14.185V14.2037C2.34907 18.378 3.31974 21.7065 5.20157 24.0993C7.31674 26.7885 10.4656 28.1663 14.5606 28.1943H14.5769C18.2169 28.1687 20.7824 27.2155 22.8952 25.1038C25.6614 22.3412 25.5786 18.8785 24.6662 16.7528C24.0129 15.228 22.7657 13.9902 21.0612 13.1712ZM14.7764 19.0803C13.2539 19.1667 11.6731 18.483 11.5937 17.02C11.5354 15.935 12.3661 14.7228 14.8697 14.5793C15.1567 14.5618 15.4379 14.5548 15.7144 14.5548C16.6244 14.5548 17.4737 14.6423 18.2472 14.8115C17.9591 18.4142 16.2674 18.9987 14.7764 19.0803Z" fill="white"/>
</g>
<defs>
<clipPath id="clip0_590_955">
<rect width="28" height="28" fill="white" transform="translate(0.361328 0.194336)"/>
</clipPath>
</defs>
</svg>
