<svg width="139" height="29" viewBox="0 0 139 29" fill="none" xmlns="http://www.w3.org/2000/svg">
<path d="M13.0489 3.29961C13.3483 2.3783 14.6517 2.3783 14.9511 3.29961L16.9187 9.35534C17.0526 9.76736 17.4365 10.0463 17.8697 10.0463H24.2371C25.2058 10.0463 25.6086 11.2859 24.8249 11.8553L19.6736 15.598C19.3231 15.8526 19.1764 16.304 19.3103 16.716L21.2779 22.7717C21.5773 23.6931 20.5228 24.4592 19.7391 23.8898L14.5878 20.1471C14.2373 19.8925 13.7627 19.8925 13.4122 20.1471L8.2609 23.8898C7.47719 24.4592 6.42271 23.6931 6.72206 22.7717L8.68969 16.716C8.82356 16.304 8.6769 15.8526 8.32642 15.598L3.17511 11.8553C2.39139 11.2859 2.79417 10.0463 3.76289 10.0463H10.1303C10.5635 10.0463 10.9474 9.76736 11.0813 9.35534L13.0489 3.29961Z" fill="#FFA722"/>
<path d="M68.5457 3.41823C68.8386 2.48355 70.1614 2.48355 70.4543 3.41824L72.3113 9.3453C72.442 9.76242 72.8284 10.0463 73.2656 10.0463H79.3503C80.3101 10.0463 80.7187 11.2674 79.952 11.845L74.9676 15.6005C74.6298 15.8551 74.4886 16.2946 74.6151 16.6982L76.5041 22.7273C76.7948 23.655 75.7245 24.41 74.9481 23.8249L70.1018 20.1735C69.7455 19.905 69.2545 19.905 68.8982 20.1735L64.0519 23.8249C63.2755 24.41 62.2052 23.655 62.4959 22.7273L64.3849 16.6982C64.5114 16.2946 64.3702 15.8551 64.0324 15.6005L59.048 11.845C58.2813 11.2674 58.6899 10.0463 59.6497 10.0463H65.7344C66.1716 10.0463 66.558 9.76242 66.6887 9.3453L68.5457 3.41823Z" fill="#FFA722"/>
<path d="M125 3.60863L126.968 9.66435C127.235 10.4884 128.003 11.0463 128.87 11.0463H135.237L130.086 14.789C129.385 15.2983 129.092 16.201 129.359 17.025L131.327 23.0808L126.176 19.3381C125.475 18.8288 124.525 18.8288 123.824 19.3381L118.673 23.0808L120.641 17.025C120.908 16.201 120.615 15.2983 119.914 14.789L114.763 11.0463L121.13 11.0463C121.997 11.0463 122.765 10.4884 123.032 9.66435L125 3.60863Z" stroke="#FFA722" stroke-width="2"/>
<path d="M41.0489 3.29961C41.3483 2.3783 42.6517 2.3783 42.9511 3.29961L44.9187 9.35534C45.0526 9.76736 45.4365 10.0463 45.8697 10.0463H52.2371C53.2058 10.0463 53.6086 11.2859 52.8249 11.8553L47.6736 15.598C47.3231 15.8526 47.1764 16.304 47.3103 16.716L49.2779 22.7717C49.5773 23.6931 48.5228 24.4592 47.7391 23.8898L42.5878 20.1471C42.2373 19.8925 41.7627 19.8925 41.4122 20.1471L36.2609 23.8898C35.4772 24.4592 34.4227 23.6931 34.7221 22.7717L36.6897 16.716C36.8236 16.304 36.6769 15.8526 36.3264 15.598L31.1751 11.8553C30.3914 11.2859 30.7942 10.0463 31.7629 10.0463H38.1303C38.5635 10.0463 38.9474 9.76736 39.0813 9.35534L41.0489 3.29961Z" fill="#FFA722"/>
<path d="M96.0489 3.29961C96.3483 2.3783 97.6517 2.3783 97.9511 3.29961L99.9187 9.35534C100.053 9.76736 100.437 10.0463 100.87 10.0463H107.237C108.206 10.0463 108.609 11.2859 107.825 11.8553L102.674 15.598C102.323 15.8526 102.176 16.304 102.31 16.716L104.278 22.7717C104.577 23.6931 103.523 24.4592 102.739 23.8898L97.5878 20.1471C97.2373 19.8925 96.7627 19.8925 96.4122 20.1471L91.2609 23.8898C90.4772 24.4592 89.4227 23.6931 89.7221 22.7717L91.6897 16.716C91.8236 16.304 91.6769 15.8526 91.3264 15.598L86.1751 11.8553C85.3914 11.2859 85.7942 10.0463 86.7629 10.0463H93.1303C93.5635 10.0463 93.9474 9.76736 94.0813 9.35534L96.0489 3.29961Z" fill="#FFA722"/>
<mask id="mask0_219_14972" style="mask-type:alpha" maskUnits="userSpaceOnUse" x="113" y="2" width="24" height="22">
<path d="M124.039 2.92705C124.339 2.00574 125.642 2.00574 125.941 2.92705L127.911 8.98961C128.045 9.40163 128.429 9.68059 128.862 9.68059H135.237C136.206 9.68059 136.608 10.9202 135.825 11.4896L130.668 15.2365C130.317 15.4911 130.17 15.9425 130.304 16.3545L132.274 22.4171C132.573 23.3384 131.519 24.1045 130.735 23.5351L125.578 19.7882C125.228 19.5336 124.753 19.5336 124.403 19.7882L119.245 23.5351C118.462 24.1045 117.407 23.3384 117.707 22.4171L119.676 16.3545C119.81 15.9425 119.664 15.4911 119.313 15.2365L114.156 11.4896C113.372 10.9202 113.775 9.68059 114.744 9.68059H121.118C121.552 9.68059 121.936 9.40163 122.069 8.98961L124.039 2.92705Z" fill="#FFA722"/>
</mask>
<g mask="url(#mask0_219_14972)">
<rect x="113.727" y="0.549561" width="10.9881" height="25.2727" rx="1" fill="#FFA722"/>
</g>
</svg>
