<svg width="29" height="29" viewBox="0 0 29 29" fill="none" xmlns="http://www.w3.org/2000/svg">
<g clip-path="url(#clip0_590_961)">
<path d="M20.6176 6.72744H22.4842M8.48424 1.12744H19.6842C21.6645 1.12744 23.5637 1.91411 24.964 3.31438C26.3642 4.71465 27.1509 6.61382 27.1509 8.59411V19.7941C27.1509 21.7744 26.3642 23.6736 24.964 25.0738C23.5637 26.4741 21.6645 27.2608 19.6842 27.2608H8.48424C6.50396 27.2608 4.60479 26.4741 3.20451 25.0738C1.80424 23.6736 1.01758 21.7744 1.01758 19.7941V8.59411C1.01758 6.61382 1.80424 4.71465 3.20451 3.31438C4.60479 1.91411 6.50396 1.12744 8.48424 1.12744ZM14.0842 19.7941C12.599 19.7941 11.1747 19.2041 10.1244 18.1539C9.07424 17.1037 8.48424 15.6793 8.48424 14.1941C8.48424 12.7089 9.07424 11.2845 10.1244 10.2343C11.1747 9.18411 12.599 8.59411 14.0842 8.59411C15.5695 8.59411 16.9938 9.18411 18.044 10.2343C19.0942 11.2845 19.6842 12.7089 19.6842 14.1941C19.6842 15.6793 19.0942 17.1037 18.044 18.1539C16.9938 19.2041 15.5695 19.7941 14.0842 19.7941Z" stroke="white" stroke-width="1.86667"/>
</g>
<defs>
<clipPath id="clip0_590_961">
<rect width="28" height="28" fill="white" transform="translate(0.0839844 0.194336)"/>
</clipPath>
</defs>
</svg>
