<svg width="26" height="25" viewBox="0 0 26 25" fill="none" xmlns="http://www.w3.org/2000/svg">
<path d="M19.2223 8.65655C19.5775 8.23367 19.5226 7.60288 19.0998 7.24766C18.6769 6.89243 18.0461 6.94728 17.6909 7.37017L19.2223 8.65655ZM10.5572 17.4174L9.81388 18.0864C10.0075 18.3015 10.2849 18.4222 10.5743 18.4173C10.8637 18.4123 11.1367 18.2822 11.3229 18.0606L10.5572 17.4174ZM7.91502 12.9868C7.54556 12.5763 6.91327 12.543 6.50276 12.9125C6.09225 13.282 6.05897 13.9142 6.42843 14.3247L7.91502 12.9868ZM25.099 12.7155C25.099 5.93305 19.5966 0.430664 12.8141 0.430664V2.43066C18.492 2.43066 23.099 7.03762 23.099 12.7155H25.099ZM12.8141 0.430664C6.03168 0.430664 0.529297 5.93305 0.529297 12.7155H2.5293C2.5293 7.03762 7.13625 2.43066 12.8141 2.43066V0.430664ZM0.529297 12.7155C0.529297 19.498 6.03168 25.0004 12.8141 25.0004V23.0004C7.13625 23.0004 2.5293 18.3934 2.5293 12.7155H0.529297ZM12.8141 25.0004C19.5966 25.0004 25.099 19.498 25.099 12.7155H23.099C23.099 18.3934 18.492 23.0004 12.8141 23.0004V25.0004ZM17.6909 7.37017L9.79147 16.7742L11.3229 18.0606L19.2223 8.65655L17.6909 7.37017ZM11.3005 16.7484L7.91502 12.9868L6.42843 14.3247L9.81388 18.0864L11.3005 16.7484Z" fill="#31C65B"/>
</svg>
