<svg width="26" height="25" viewBox="0 0 26 25" fill="none" xmlns="http://www.w3.org/2000/svg">
<path d="M19.2223 8.23175C19.5775 7.80886 19.5226 7.17808 19.0998 6.82285C18.6769 6.46763 18.0461 6.52248 17.6909 6.94536L19.2223 8.23175ZM10.5572 16.9926L9.81388 17.6616C10.0075 17.8767 10.2849 17.9974 10.5743 17.9925C10.8637 17.9875 11.1367 17.8574 11.3229 17.6358L10.5572 16.9926ZM7.91502 12.562C7.54556 12.1515 6.91327 12.1182 6.50276 12.4877C6.09225 12.8571 6.05897 13.4894 6.42843 13.8999L7.91502 12.562ZM25.099 12.2907C25.099 5.50825 19.5966 0.00585938 12.8141 0.00585938V2.00586C18.492 2.00586 23.099 6.61282 23.099 12.2907H25.099ZM12.8141 0.00585938C6.03168 0.00585938 0.529297 5.50825 0.529297 12.2907H2.5293C2.5293 6.61282 7.13625 2.00586 12.8141 2.00586V0.00585938ZM0.529297 12.2907C0.529297 19.0732 6.03168 24.5756 12.8141 24.5756V22.5756C7.13625 22.5756 2.5293 17.9686 2.5293 12.2907H0.529297ZM12.8141 24.5756C19.5966 24.5756 25.099 19.0732 25.099 12.2907H23.099C23.099 17.9686 18.492 22.5756 12.8141 22.5756V24.5756ZM17.6909 6.94536L9.79147 16.3494L11.3229 17.6358L19.2223 8.23175L17.6909 6.94536ZM11.3005 16.3236L7.91502 12.562L6.42843 13.8999L9.81388 17.6616L11.3005 16.3236Z" fill="#31C65B"/>
</svg>
