<svg width="26" height="25" viewBox="0 0 26 25" fill="none" xmlns="http://www.w3.org/2000/svg">
<path d="M19.2223 8.22589C19.5775 7.803 19.5226 7.17222 19.0998 6.81699C18.6769 6.46177 18.0461 6.51662 17.6909 6.93951L19.2223 8.22589ZM10.5572 16.9867L9.81388 17.6557C10.0075 17.8708 10.2849 17.9915 10.5743 17.9866C10.8637 17.9816 11.1367 17.8516 11.3229 17.6299L10.5572 16.9867ZM7.91502 12.5562C7.54556 12.1456 6.91327 12.1124 6.50276 12.4818C6.09225 12.8513 6.05897 13.4836 6.42843 13.8941L7.91502 12.5562ZM25.099 12.2848C25.099 5.50239 19.5966 0 12.8141 0V2C18.492 2 23.099 6.60696 23.099 12.2848H25.099ZM12.8141 0C6.03168 0 0.529297 5.50239 0.529297 12.2848H2.5293C2.5293 6.60696 7.13625 2 12.8141 2V0ZM0.529297 12.2848C0.529297 19.0673 6.03168 24.5697 12.8141 24.5697V22.5697C7.13625 22.5697 2.5293 17.9627 2.5293 12.2848H0.529297ZM12.8141 24.5697C19.5966 24.5697 25.099 19.0673 25.099 12.2848H23.099C23.099 17.9627 18.492 22.5697 12.8141 22.5697V24.5697ZM17.6909 6.93951L9.79147 16.3435L11.3229 17.6299L19.2223 8.22589L17.6909 6.93951ZM11.3005 16.3178L7.91502 12.5562L6.42843 13.8941L9.81388 17.6557L11.3005 16.3178Z" fill="#31C65B"/>
</svg>
